<svg width="134" height="22" viewBox="0 0 134 22" fill="none" xmlns="http://www.w3.org/2000/svg">
<path d="M-0.00568183 4.18608V0.636363H16.7188V4.18608H10.4844V21H6.22869V4.18608H-0.00568183ZM17.8075 21V5.72727H21.9141V8.39205H22.0732C22.3516 7.44413 22.8189 6.72822 23.4751 6.24432C24.1314 5.75379 24.8871 5.50852 25.7422 5.50852C25.9543 5.50852 26.183 5.52178 26.4283 5.54829C26.6735 5.57481 26.889 5.61127 27.0746 5.65767V9.41619C26.8757 9.35653 26.6006 9.3035 26.2493 9.2571C25.898 9.2107 25.5765 9.1875 25.2848 9.1875C24.6617 9.1875 24.1049 9.32339 23.6143 9.59517C23.1304 9.86032 22.746 10.2315 22.4609 10.7088C22.1825 11.1861 22.0433 11.7363 22.0433 12.3594V21H17.8075ZM33.1822 21.2884C32.2077 21.2884 31.3394 21.1193 30.5771 20.7812C29.8147 20.4366 29.2115 19.9295 28.7674 19.2599C28.3299 18.5838 28.1112 17.742 28.1112 16.7344C28.1112 15.8859 28.2669 15.1733 28.5785 14.5966C28.89 14.0199 29.3143 13.5559 29.8512 13.2045C30.3881 12.8532 30.998 12.5881 31.6808 12.4091C32.3701 12.2301 33.0927 12.1042 33.8484 12.0312C34.7366 11.9384 35.4525 11.8523 35.9961 11.7727C36.5397 11.6866 36.9341 11.5606 37.1793 11.3949C37.4246 11.2292 37.5472 10.9839 37.5472 10.6591V10.5994C37.5472 9.9697 37.3484 9.48248 36.9506 9.13778C36.5595 8.79309 36.0027 8.62074 35.2802 8.62074C34.5179 8.62074 33.9113 8.78977 33.4606 9.12784C33.0098 9.45928 32.7115 9.87689 32.5657 10.3807L28.6481 10.0625C28.8469 9.13447 29.238 8.33239 29.8214 7.65625C30.4047 6.97348 31.1571 6.44981 32.0785 6.08523C33.0065 5.71401 34.0804 5.52841 35.3001 5.52841C36.1486 5.52841 36.9606 5.62784 37.7362 5.8267C38.5183 6.02557 39.2111 6.33381 39.8143 6.75142C40.4241 7.16903 40.9047 7.70597 41.256 8.36222C41.6074 9.01184 41.783 9.79072 41.783 10.6989V21H37.766V18.8821H37.6467C37.4014 19.3594 37.0733 19.7803 36.6623 20.1449C36.2513 20.5028 35.7575 20.7846 35.1808 20.9901C34.604 21.1889 33.9379 21.2884 33.1822 21.2884ZM34.3952 18.3651C35.0183 18.3651 35.5685 18.2424 36.0458 17.9972C36.5231 17.7453 36.8976 17.4072 37.1694 16.983C37.4412 16.5587 37.5771 16.0781 37.5771 15.5412V13.9205C37.4445 14.0066 37.2622 14.0862 37.0302 14.1591C36.8048 14.2254 36.5496 14.2884 36.2646 14.348C35.9795 14.401 35.6945 14.4508 35.4094 14.4972C35.1244 14.5369 34.8659 14.5734 34.6339 14.6065C34.1367 14.6795 33.7025 14.7955 33.3313 14.9545C32.9601 15.1136 32.6718 15.3291 32.4663 15.6009C32.2608 15.866 32.158 16.1974 32.158 16.5952C32.158 17.1719 32.3668 17.6127 32.7844 17.9176C33.2087 18.2159 33.7456 18.3651 34.3952 18.3651ZM49.305 12.1705V21H45.0692V5.72727H49.1062V8.42188H49.2852C49.6232 7.53362 50.19 6.83097 50.9854 6.31392C51.7809 5.79025 52.7454 5.52841 53.8789 5.52841C54.9395 5.52841 55.8642 5.76042 56.6531 6.22443C57.4419 6.68845 58.055 7.35133 58.4925 8.21307C58.93 9.06818 59.1488 10.089 59.1488 11.2756V21H54.913V12.0312C54.9196 11.0966 54.681 10.3674 54.1971 9.84375C53.7132 9.31345 53.047 9.0483 52.1985 9.0483C51.6284 9.0483 51.1246 9.17093 50.6871 9.41619C50.2563 9.66146 49.9182 10.0194 49.6729 10.4901C49.4343 10.9541 49.3117 11.5142 49.305 12.1705ZM75.1946 10.0824L71.3168 10.321C71.2505 9.98958 71.108 9.69129 70.8892 9.42614C70.6705 9.15436 70.3821 8.93892 70.0241 8.77983C69.6728 8.61411 69.2519 8.53125 68.7614 8.53125C68.1051 8.53125 67.5516 8.67045 67.1009 8.94886C66.6501 9.22064 66.4247 9.58523 66.4247 10.0426C66.4247 10.4072 66.5705 10.7154 66.8622 10.9673C67.1539 11.2192 67.6544 11.4214 68.3636 11.5739L71.1278 12.1307C72.6127 12.4356 73.7197 12.9261 74.4489 13.6023C75.178 14.2784 75.5426 15.1667 75.5426 16.267C75.5426 17.268 75.2476 18.1463 74.6577 18.902C74.0743 19.6577 73.2723 20.2476 72.2514 20.6719C71.2372 21.0895 70.0672 21.2983 68.7415 21.2983C66.7197 21.2983 65.1089 20.8774 63.9091 20.0355C62.7159 19.187 62.0166 18.0336 61.8111 16.5753L65.9773 16.3565C66.1032 16.973 66.4081 17.4437 66.892 17.7685C67.3759 18.0866 67.9957 18.2457 68.7514 18.2457C69.4938 18.2457 70.0904 18.1032 70.5412 17.8182C70.9986 17.5265 71.2306 17.152 71.2372 16.6946C71.2306 16.3101 71.0682 15.9953 70.75 15.75C70.4318 15.4981 69.9413 15.3059 69.2784 15.1733L66.6335 14.6463C65.142 14.348 64.0317 13.831 63.3026 13.0952C62.58 12.3594 62.2188 11.4214 62.2188 10.2812C62.2188 9.30019 62.4839 8.45502 63.0142 7.74574C63.5511 7.03646 64.3035 6.48958 65.2713 6.10511C66.2457 5.72064 67.3859 5.52841 68.6918 5.52841C70.6207 5.52841 72.1387 5.93608 73.2457 6.75142C74.3594 7.56676 75.009 8.67708 75.1946 10.0824Z" fill="#0A1733"/>
<path d="M78.2894 21V0.636363H86.3235C87.868 0.636363 89.1838 0.931344 90.271 1.52131C91.3581 2.10464 92.1867 2.91667 92.7567 3.95739C93.3335 4.99148 93.6218 6.18466 93.6218 7.53693C93.6218 8.8892 93.3301 10.0824 92.7468 11.1165C92.1635 12.1506 91.3183 12.956 90.2113 13.5327C89.1109 14.1094 87.7785 14.3977 86.2141 14.3977H81.0934V10.9474H85.5181C86.3467 10.9474 87.0295 10.8049 87.5664 10.5199C88.11 10.2282 88.5143 9.82718 88.7795 9.31676C89.0513 8.79972 89.1871 8.20644 89.1871 7.53693C89.1871 6.86079 89.0513 6.27083 88.7795 5.76704C88.5143 5.25663 88.11 4.86222 87.5664 4.58381C87.0228 4.29877 86.3335 4.15625 85.4982 4.15625H82.5948V21H78.2894ZM102.993 21.2983C101.449 21.2983 100.113 20.9702 98.9862 20.3139C97.8659 19.651 97.0008 18.7296 96.391 17.5497C95.7811 16.3632 95.4762 14.9877 95.4762 13.4233C95.4762 11.8456 95.7811 10.4669 96.391 9.28693C97.0008 8.10038 97.8659 7.17898 98.9862 6.52273C100.113 5.85985 101.449 5.52841 102.993 5.52841C104.538 5.52841 105.87 5.85985 106.99 6.52273C108.117 7.17898 108.986 8.10038 109.596 9.28693C110.205 10.4669 110.51 11.8456 110.51 13.4233C110.51 14.9877 110.205 16.3632 109.596 17.5497C108.986 18.7296 108.117 19.651 106.99 20.3139C105.87 20.9702 104.538 21.2983 102.993 21.2983ZM103.013 18.017C103.716 18.017 104.302 17.8182 104.773 17.4205C105.244 17.0161 105.598 16.4659 105.837 15.7699C106.082 15.0739 106.205 14.2817 106.205 13.3935C106.205 12.5052 106.082 11.7131 105.837 11.017C105.598 10.321 105.244 9.77083 104.773 9.36648C104.302 8.96212 103.716 8.75994 103.013 8.75994C102.304 8.75994 101.707 8.96212 101.223 9.36648C100.746 9.77083 100.385 10.321 100.14 11.017C99.9009 11.7131 99.7816 12.5052 99.7816 13.3935C99.7816 14.2817 99.9009 15.0739 100.14 15.7699C100.385 16.4659 100.746 17.0161 101.223 17.4205C101.707 17.8182 102.304 18.017 103.013 18.017ZM113.265 21V5.72727H117.371V8.39205H117.53C117.809 7.44413 118.276 6.72822 118.932 6.24432C119.588 5.75379 120.344 5.50852 121.199 5.50852C121.411 5.50852 121.64 5.52178 121.885 5.54829C122.131 5.57481 122.346 5.61127 122.532 5.65767V9.41619C122.333 9.35653 122.058 9.3035 121.706 9.2571C121.355 9.2107 121.033 9.1875 120.742 9.1875C120.119 9.1875 119.562 9.32339 119.071 9.59517C118.587 9.86032 118.203 10.2315 117.918 10.7088C117.64 11.1861 117.5 11.7363 117.5 12.3594V21H113.265ZM133.611 5.72727V8.90909H124.413V5.72727H133.611ZM126.501 2.06818H130.737V16.3068C130.737 16.6979 130.797 17.0028 130.916 17.2216C131.036 17.4337 131.201 17.5829 131.413 17.669C131.632 17.7552 131.884 17.7983 132.169 17.7983C132.368 17.7983 132.567 17.7817 132.766 17.7486C132.964 17.7088 133.117 17.679 133.223 17.6591L133.889 20.8111C133.677 20.8774 133.379 20.9536 132.994 21.0398C132.61 21.1326 132.143 21.1889 131.592 21.2088C130.571 21.2486 129.677 21.1127 128.908 20.8011C128.145 20.4896 127.552 20.0057 127.128 19.3494C126.704 18.6932 126.495 17.8646 126.501 16.8636V2.06818Z" fill="#1E90FF"/>
</svg>
